<svg width="153" height="176" viewBox="0 0 153 176" fill="none" xmlns="http://www.w3.org/2000/svg">
<path d="M64.8564 40.1602C66.4282 39.2885 68.1076 38.5875 69.8701 38.083L53.5498 0H98.3564L81.4346 37.665C83.9762 38.1953 86.3701 39.127 88.5479 40.3906L113.11 0H153V17.4854L96.2539 47.4941C97.4174 49.168 98.3751 50.9958 99.0869 52.9424L153 34.9717V65.0244L100.543 61.2002L100.541 61.208C100.541 62.7112 100.401 64.1817 100.137 65.6084L153 79.7783V126.225L148.903 129.237L95.0781 76.5L94.9639 76.5967C93.91 77.8591 92.7297 79.0118 91.4414 80.0352L134.968 139.339L138.479 136.907L85.7744 175.683L80.8789 84.8428C79.4589 85.1041 77.9956 85.2422 76.5 85.2422C75.1931 85.2422 73.9105 85.1362 72.6602 84.9355L67.2266 175.684L19.1885 140.342L61.9131 80.3115C60.1376 78.9544 58.5557 77.3569 57.2188 75.5654L4.40625 129.466L0 126.225V80.8711L52.9629 66.1279C52.6315 64.5373 52.4571 62.8891 52.457 61.2002L0 64.4785V36.0645L54.3525 51.8262C54.8403 50.6752 55.4157 49.5705 56.0693 48.5195L0 19.125V0H40.4355L64.8564 40.1602ZM76.5 39.3428C64.4287 39.3428 54.6426 49.1289 54.6426 61.2002C54.6428 73.2713 64.4288 83.0566 76.5 83.0566C88.5711 83.0565 98.3562 73.2713 98.3564 61.2002C98.3564 49.1289 88.5712 39.3429 76.5 39.3428Z" fill="#FFB700"/>
</svg>
