<svg width="350" height="350" viewBox="0 0 350 350" fill="none" xmlns="http://www.w3.org/2000/svg">
<rect width="350" height="350" fill="url(#paint0_linear_3_2)"/>
<path d="M163.856 139.16C165.428 138.289 167.108 137.588 168.87 137.083L152.55 99H197.356L180.435 136.665C182.976 137.195 185.37 138.127 187.548 139.391L212.11 99H252V116.485L195.254 146.494C196.417 148.168 197.375 149.996 198.087 151.942L252 133.972V164.024L199.543 160.2L199.541 160.208C199.541 161.711 199.401 163.182 199.137 164.608L252 178.778V225.225L247.903 228.237L194.078 175.5L193.964 175.597C192.91 176.859 191.73 178.012 190.441 179.035L233.968 238.339L237.479 235.907L184.774 274.683L179.879 183.843C178.459 184.104 176.996 184.242 175.5 184.242C174.193 184.242 172.911 184.136 171.66 183.936L166.227 274.684L118.188 239.342L160.913 179.312C159.138 177.954 157.556 176.357 156.219 174.565L103.406 228.466L99 225.225V179.871L151.963 165.128C151.632 163.537 151.457 161.889 151.457 160.2L99 163.479V135.064L153.353 150.826C153.84 149.675 154.416 148.57 155.069 147.52L99 118.125V99H139.436L163.856 139.16ZM175.5 138.343C163.429 138.343 153.643 148.129 153.643 160.2C153.643 172.271 163.429 182.057 175.5 182.057C187.571 182.057 197.356 172.271 197.356 160.2C197.356 148.129 187.571 138.343 175.5 138.343Z" fill="#FFB700"/>
<defs>
<linearGradient id="paint0_linear_3_2" x1="0" y1="350" x2="350" y2="0" gradientUnits="userSpaceOnUse">
<stop stop-color="#1A1A1A"/>
<stop offset="0.336538" stop-color="#1E1E1E"/>
<stop offset="0.567308" stop-color="#222222"/>
<stop offset="1" stop-color="#333333"/>
</linearGradient>
</defs>
</svg>
